<?xml version="1.0" encoding="utf-8"?>
<!-- Generator: Adobe Illustrator 25.4.1, SVG Export Plug-In . SVG Version: 6.00 Build 0)  -->
<svg version="1.1" id="Layer_1" xmlns="http://www.w3.org/2000/svg" xmlns:xlink="http://www.w3.org/1999/xlink" x="0px" y="0px"
	 viewBox="0 0 10800 12000" style="enable-background:new 0 0 10800 12000;" xml:space="preserve">
<style type="text/css">
	.st0{fill:#395072;}
	.st1{fill:#FFFFFF;}
	.st2{fill:#E52521;}
</style>
<rect x="-77.4" class="st0" width="10877.4" height="12000"/>
<g>
	<path class="st1" d="M289.8,3373.2V457.4h471.4v2915.8H289.8z"/>
	<path class="st1" d="M3010.6,3423.2c-413.9,0-749.2-142.3-1005.9-427c-256.8-284.6-385.1-644.9-385.1-1080.9
		c0-416.5,130.9-772,392.8-1066.3c261.8-294.3,592.1-441.5,990.6-441.5c224.8,0,416.4,32.7,574.8,97.9
		c158.4,65.3,310.4,164.5,456,297.8l-298.9,387.4c-112.5-105.5-225.5-183.9-339.2-235.3c-113.7-51.4-251-77.1-412-77.1
		c-245.3,0-451.6,101.4-618.9,304.1c-167.4,202.7-251,447.1-251,733.1c0,302.7,84.3,551.9,252.9,747.7
		c168.6,195.8,388.3,293.7,659.1,293.7c250.4,0,466.2-73.5,647.6-220.8v-545.7h-686v-445.7h1142v1224.6
		C3805.1,3271.9,3432.2,3423.2,3010.6,3423.2z"/>
	<path class="st1" d="M5003.3,3373.2V457.4h1203.3c309.1,0,542.9,86.1,701.3,258.3c120.1,130.6,180.1,294.4,180.1,491.5
		c0,288.8-127.8,505.4-383.2,649.8c355.1,130.6,532.7,369.4,532.7,716.5c0,255.5-89.5,452.7-268.3,591.5
		c-178.9,138.9-420.3,208.3-724.3,208.3H5003.3z M5467,1686.2h643.8c155.8,0,279.1-34,369.8-102.1c90.7-68,136-168.7,136-302
		c0-116.6-40.9-207.6-122.6-272.8c-81.8-65.2-198-97.9-348.7-97.9H5467V1686.2z M5467,2919.2h781.8c163.5,0,290.6-34.7,381.3-104.1
		c90.7-69.4,136-170.8,136-304.1c0-261-184-391.6-551.8-391.6H5467V2919.2z"/>
</g>
<path class="st1" d="M9440.9,4719.8H5716.1v-398.6h3724.8c363.6,0,670.7-218,670.7-476.1c0-258.1-307.1-476.1-670.7-476.1H7533.1
	v-398.6h1907.8c276.4,0,538.3,85.1,737.4,239.7c214,166.2,331.9,391.7,331.9,635.1c0,243.4-117.9,468.9-331.9,635.1
	C9979.2,4634.7,9717.3,4719.8,9440.9,4719.8z"/>
<path class="st1" d="M3885.2,6271.2H1428c-589.6,0-1069.3-437.4-1069.3-975c0-537.6,479.7-975,1069.3-975h4288.1v398.6H1428
	c-369.8,0-670.7,258.6-670.7,576.4s300.9,576.4,670.7,576.4h2457.2V6271.2z"/>
<path class="st1" d="M7234.5,8187.2H4189.7V5823.3H8647v951.4C8647,7553.6,8013.3,8187.2,7234.5,8187.2z M4588.3,7788.6h2646.2
	c559.1,0,1013.9-454.8,1013.9-1013.9V6222h-3660V7788.6z"/>
<path class="st1" d="M9296.1,9890.8c-312,0-565.8-253.8-565.8-565.8c0-312,253.8-565.8,565.8-565.8c312,0,565.8,253.8,565.8,565.8
	C9861.9,9637,9608.1,9890.8,9296.1,9890.8z M9296.1,8958.5c-202.1,0-366.5,164.4-366.5,366.5c0,202.1,164.4,366.5,366.5,366.5
	c202.1,0,366.5-164.4,366.5-366.5C9662.6,9122.9,9498.2,8958.5,9296.1,8958.5z"/>
<path class="st1" d="M5374.2,8916.4h-785.8v-928.4H4389V6671.2h-199.2V9315h942.9C5136.3,9143.1,5232.9,8994.2,5374.2,8916.4z"/>
<path class="st1" d="M5598.7,9890.8c-312,0-565.8-253.8-565.8-565.8c0-312,253.8-565.8,565.8-565.8c312,0,565.8,253.8,565.8,565.8
	C6164.5,9637,5910.7,9890.8,5598.7,9890.8z M5598.7,8958.5c-202.1,0-366.5,164.4-366.5,366.5c0,202.1,164.4,366.5,366.5,366.5
	c202.1,0,366.5-164.4,366.5-366.5C5965.2,9122.9,5800.8,8958.5,5598.7,8958.5z"/>
<path class="st1" d="M9861.9,8219.6h-727.3c-270.2,0-489.9-219.8-489.9-489.9v-383.5H8844v383.5c0,160.3,130.4,290.6,290.6,290.6
	h727.3V8219.6z"/>
<rect x="8744.3" y="8362.8" class="st1" width="279.1" height="199.3"/>
<g transform="translate(6301.9 2019.7)">
	<path class="st2" d="M-9.8,4267.8l-104.4,203.6c-11.8,22.1-33.1,20.1-54.3,7.7l-75.6-40.9l56.3,312.7
		c11.8,57.1-26.2,57.1-44.9,32.4l-131.9-154.4l-21.4,78.4c-2.5,10.3-13.3,21.1-29.6,18.5l-166.8-36.7l43.8,166.5
		c9.4,37.1,16.7,52.4-9.5,62.2l-59.5,29.2l287.1,243.9c11.4,9.2,17.1,25.8,13.1,40.8l-25.1,86.2c98.9-11.9,187.5-22.6,286.4-34.5
		c8.8-0.1,23.4,7.7,23.3,18.3l-13.1,315.9h48.1l-7.6-315.2c-0.1-10.6,13.1-19.1,21.9-19c98.9,11.9,187.5,22.6,286.4,34.5l-25.1-86.2
		c-4-15,1.7-31.6,13.1-40.8l287.1-243.9l-59.5-29.2c-26.2-9.8-18.8-25.1-9.5-62.2l43.8-166.5L396,4725.9
		c-16.3,2.6-27.1-8.2-29.6-18.5l-21.4-78.4l-131.9,154.4c-18.8,24.7-56.8,24.7-44.9-32.4l56.3-312.7l-75.6,40.9
		c-21.2,12.4-42.5,14.4-54.3-7.7"/>
</g>
<g>
	<path class="st1" d="M583.5,11317.5l-128-552.7v598.9c0,33.1-6.8,58-20.3,74.6s-31.5,24.9-53.9,24.9c-21.7,0-39.4-8.2-53.1-24.6
		c-13.7-16.4-20.6-41.3-20.6-74.9v-686.5c0-37.9,9-63.4,27.2-76.6c18.1-13.2,42.5-19.8,73.3-19.8h50c30,0,51.9,3,65.5,8.9
		c13.6,5.9,23.6,16.6,30.1,31.9c6.5,15.4,13.9,40.4,22.3,75.1l116,474.8l115.8-474.8c8.3-34.7,15.8-59.7,22.3-75.1
		c6.5-15.4,16.6-26,30.2-31.9c13.6-5.9,35.4-8.9,65.5-8.9h50c30.8,0,55.3,6.6,73.4,19.8c18.1,13.2,27.2,38.8,27.2,76.6v686.5
		c0,33.1-6.8,58-20.3,74.6s-31.7,24.9-54.4,24.9c-21.3,0-38.8-8.3-52.6-24.9s-20.6-41.4-20.6-74.6v-598.9l-128,552.7
		c-8.4,35.9-15.2,62.3-20.4,79c-5.3,16.8-15,32.1-29.1,45.9c-14.2,13.8-33.8,20.7-58.8,20.7c-18.9,0-34.9-4.4-48-13.3
		s-23.2-20.2-30.5-34s-13-29.1-17.2-45.9C592.1,11353.1,587.8,11335.7,583.5,11317.5z"/>
	<path class="st1" d="M1864.4,11134.9c0,48.1-6.9,92.5-20.7,133.1c-13.8,40.6-33.7,75.5-59.9,104.7c-26.1,29.2-57.3,51.6-93.6,67.1
		c-36.3,15.6-77.1,23.4-122.5,23.4c-45,0-85.5-7.9-121.4-23.7c-35.9-15.8-67-38.4-93.3-67.8c-26.3-29.4-46.3-64.1-59.9-104.2
		s-20.4-84.3-20.4-132.9c0-48.9,6.9-93.7,20.7-134.4c13.8-40.6,33.6-75.4,59.3-104.2c25.8-28.8,57-51,93.6-66.6
		c36.6-15.6,77.1-23.4,121.4-23.4c45,0,85.8,7.9,122.5,23.7c36.6,15.8,68,38.3,94.2,67.5c26.1,29.2,46,64,59.6,104.3
		C1857.5,11041.8,1864.4,11086.3,1864.4,11134.9z M1715.4,11134.9c0-65.9-13.4-117.3-40.1-154c-26.7-36.7-62.6-55.1-107.6-55.1
		c-29.1,0-54.7,8.2-76.9,24.6c-22.2,16.4-39.3,40.6-51.2,72.6c-12,32-18,69.3-18,111.9c0,42.3,5.9,79.2,17.7,110.8
		c11.8,31.6,28.7,55.8,50.7,72.6c22,16.8,47.9,25.2,77.7,25.2c45.1,0,80.9-18.5,107.6-55.4
		C1702.1,11251.1,1715.4,11200,1715.4,11134.9z"/>
	<path class="st1" d="M2147.9,10906.7l120.3,367.2l129.6-383.2c10.2-30.8,20.1-52.6,29.9-65.4c9.8-12.8,24.7-19.3,44.6-19.3
		c18.9,0,34.9,6.9,48.2,20.7c13.2,13.8,19.9,29.8,19.9,47.9c0,7.1-1.2,15.4-3.5,24.9c-2.4,9.5-5.1,18.3-8.2,26.6
		c-3.1,8.3-6.6,17.8-10.6,28.4l-142.6,384.8c-4,11.1-9.2,25.1-15.5,42c-6.4,17-13.4,31.5-21.2,43.5s-17.4,21.4-28.8,28.1
		c-11.4,6.7-25.3,10.1-41.6,10.1c-21.1,0-37.8-5.2-50.4-15.7c-12.5-10.5-21.8-21.9-27.8-34.3c-6-12.4-16.1-37-30.2-73.7
		l-141.5-380.6c-3.3-9.5-6.6-18.9-10.1-28.4c-3.5-9.5-6.4-19.1-8.7-29s-3.5-18.3-3.5-25.5c0-11,3.1-22,9.2-32.8
		c6.2-10.8,14.7-19.7,25.6-26.6c10.9-6.9,22.7-10.4,35.4-10.4c24.7,0,41.6,7.7,50.9,23.1
		C2126.4,10844.5,2136.7,10870.4,2147.9,10906.7z"/>
	<path class="st1" d="M2798.1,10731.6c-20.6,0-38.2-6.9-52.8-20.7c-14.6-13.8-21.9-33.3-21.9-58.6c0-22.9,7.5-41.7,22.5-56.5
		c15-14.8,32.4-22.2,52.3-22.2c19.1,0,36.1,6.7,50.9,20.1c14.8,13.4,22.2,32.9,22.2,58.6c0,24.9-7.2,44.3-21.7,58.3
		C2835.1,10724.6,2818,10731.6,2798.1,10731.6z M2871.3,10897.8v467c0,32.4-7,56.8-21.1,73.4c-14.1,16.6-32,24.9-53.6,24.9
		s-39.3-8.5-52.8-25.5c-13.6-17-20.3-41.2-20.3-72.8v-462.3c0-32,6.8-56,20.3-72.2c13.6-16.2,31.2-24.3,52.8-24.3
		s39.6,8.1,53.6,24.3C2864.2,10846.5,2871.3,10869,2871.3,10897.8z"/>
	<path class="st1" d="M3234.9,10895.3v19.5c26.1-37.4,54.7-64.9,85.8-82.5c31.1-17.5,66.7-26.3,107.1-26.3
		c39.2,0,74.3,9.3,105.1,27.8s53.9,44.7,69.2,78.6c9.8,19.7,16.1,41.1,19,63.9c2.9,22.9,4.4,52.1,4.4,87.6v300.8
		c0,32.4-6.8,56.9-20.4,73.4c-13.6,16.6-31.3,24.9-53,24.9c-22.1,0-40.1-8.5-53.8-25.5c-13.8-17-20.7-41.3-20.7-72.8v-269.4
		c0-53.3-6.8-94-20.5-122.3c-13.6-28.2-40.8-42.3-81.5-42.3c-26.6,0-50.7,8.6-72.6,25.8c-21.8,17.2-37.8,40.8-48,70.8
		c-7.3,24.1-10.9,69.1-10.9,135v202.5c0,32.8-7,57.3-20.9,73.7c-13.9,16.4-31.9,24.6-53.9,24.6c-21.3,0-38.8-8.5-52.6-25.5
		s-20.6-41.2-20.6-72.8v-467c0-30.8,6.1-53.8,18.4-69s29.1-22.8,50.4-22.8c13,0,24.7,3.4,35.2,10.1c10.5,6.7,18.9,16.8,25.2,30.2
		C3231.8,10859.6,3234.9,10876,3234.9,10895.3z"/>
	<path class="st1" d="M4396.8,10924.4v469.3c0,53.6-5.3,99.8-15.8,138.5c-10.5,38.7-27.4,70.6-50.7,95.9
		c-23.3,25.2-53.7,44-91.3,56.2c-37.6,12.2-84.4,18.3-140.4,18.3c-51.3,0-97.1-7.8-137.4-23.3c-40.3-15.6-71.4-35.7-93.2-60.3
		c-21.8-24.6-32.7-49.9-32.7-76c0-19.7,6.1-35.8,18.5-48.2c12.3-12.4,27.2-18.6,44.6-18.6c21.7,0,40.8,10.3,57.1,30.9
		c8,10.6,16.3,21.4,24.8,32.2c8.6,10.8,18,20.1,28.4,27.8c10.4,7.7,22.8,13.4,37.4,17.1s31.3,5.6,50.2,5.6
		c38.6,0,68.5-5.8,89.9-17.4c21.3-11.6,36.2-27.9,44.8-48.7c8.6-20.9,13.6-43.2,15-67c1.4-23.8,2.5-62.1,3.3-114.9
		c-22.9,34.6-49.4,61-79.3,79c-30,18.1-65.7,27.1-107.1,27.1c-49.8,0-93.3-13.8-130.6-41.4c-37.3-27.6-65.9-66.3-85.9-116
		s-30-107.1-30-172.2c0-48.5,6.1-92.3,18.3-131.4c12.2-39.1,29.5-72,52.1-98.8c22.5-26.8,48.5-47,78-60.7s61.8-20.4,97.1-20.4
		c42.2,0,78.7,8.8,109.6,26.4c30.9,17.6,59.6,45.1,86.2,82.7v-21.9c0-28,6.4-49.8,19.1-65.2c12.7-15.4,29.1-23.1,49-23.1
		c28.7,0,47.7,10.2,57.2,30.5C4392,10856.7,4396.8,10886.1,4396.8,10924.4z M3965.1,11129.3c0,65.5,13.2,115.1,39.6,148.6
		c26.4,33.6,60.5,50.3,102.4,50.3c24.8,0,48.2-7.2,70.2-21.6c22-14.4,40-36.1,53.8-65.1c13.8-29,20.8-64.3,20.8-105.7
		c0-65.9-13.4-117.2-40.2-153.9c-26.8-36.7-62-55.1-105.7-55.1c-42.6,0-76.8,17.6-102.4,52.7
		C3977.9,11014.6,3965.1,11064.5,3965.1,11129.3z"/>
	<path class="st1" d="M4718.3,10764.8c0-36.8,8.8-70.2,26.4-100.5c17.6-30.2,43.4-54.2,77.5-72c34.1-17.8,74.1-26.7,120.1-26.7
		c45.7,0,85.2,9.3,118.5,27.9c33.3,18.6,58.2,42.9,74.7,72.9c16.5,30,24.7,61.2,24.7,93.6c0,44.2-13.4,82.8-40.2,115.6
		c-26.8,32.8-66.4,66.2-118.6,100.1c18.1,23.3,35,45.2,50.6,65.7c15.6,20.5,30.6,39.7,45.2,57.4c14.5,17.8,27.7,33,39.7,45.6
		c5.4-11.1,13.9-31.8,25.3-62.2c11.4-30.4,22.1-52.3,32.1-65.7c10-13.4,24-20.1,42.2-20.1c17,0,32.1,6.6,45.2,19.8
		c13.1,13.2,19.6,29.3,19.6,48.3c0,17.4-5.6,41.9-16.9,73.7c-11.3,31.8-27.6,67-49,105.7c13.4,12.6,34.7,31.7,64,57.3
		c29.2,25.6,47.2,43,53.9,52.3c6.7,9.3,10.1,21.6,10.1,36.9c0,20.5-6.8,37.7-20.4,51.7c-13.6,14-28.8,21-45.5,21
		c-17.1,0-33.6-5.9-49.5-17.7c-16-11.8-49.9-40.7-101.8-86.7c-23.6,24-47.9,43.7-73.1,59c-25.2,15.3-52.2,26.7-81,34.2
		s-61,11.2-96.5,11.2c-45.3,0-86-7.2-122-21.6c-36.1-14.4-66-33.8-90-58.3c-23.9-24.4-41.7-51.6-53.3-81.3
		c-11.6-29.8-17.4-60.1-17.4-90.8c0-29.6,4.3-56.7,13-81.4c8.7-24.7,20.9-46.9,36.7-66.8c15.8-19.9,35.2-38.8,58.2-56.8
		c23-18,49.7-35.4,80.2-52.4c-27.2-37.1-47.8-70.2-61.7-99.2C4725.3,10825.5,4718.3,10795.6,4718.3,10764.8z M4872.1,11048.4
		c-37,23.3-64.6,46.6-82.9,69.9c-18.3,23.3-27.5,50.9-27.5,82.9c0,18.2,3.3,35.5,10,52.1c6.7,16.6,16.5,32,29.4,46.2
		c12.9,14.2,27.8,25.1,44.9,32.6c17,7.5,35,11.2,53.8,11.2c18.5,0,36.4-3.1,53.8-9.5c17.4-6.3,33.9-15.3,49.5-26.9
		c15.6-11.7,31.7-26.2,48.4-43.5c-32.3-32.4-61.3-64.4-87-96.2C4938.8,11135.4,4908,11095.8,4872.1,11048.4z M4927.5,10886.2
		c36.9-25.7,63.7-47.3,80.2-64.8c16.5-17.6,24.7-38.8,24.7-63.7c0-24.5-8.2-45-24.7-61.6c-16.5-16.6-37.2-24.9-62.2-24.9
		c-25,0-45.9,8.5-62.7,25.5c-16.8,17-25.2,36.9-25.2,59.8c0,11.9,3.2,24.6,9.5,38.2c6.3,13.6,14.2,27.1,23.6,40.6
		C4900.1,10848.7,4912.4,10865.6,4927.5,10886.2z"/>
	<path class="st1" d="M5655,10580.6h211c54.9,0,102,5.5,141.2,16.6c39.3,11,74.9,31.7,106.9,62c83.2,77.4,124.8,195,124.8,352.9
		c0,52.1-4.2,99.7-12.5,142.7c-8.4,43-21.3,81.8-38.7,116.3c-17.5,34.5-39.8,65.4-67,92.7c-21.4,20.8-44.9,37.5-70.4,50
		c-25.5,12.5-52.8,21.4-82.1,26.5c-29.3,5.1-62.3,7.6-99,7.6h-211.1c-29.5,0-51.6-4.8-66.5-14.5c-14.9-9.7-24.6-23.3-29.2-40.8
		c-4.5-17.5-6.8-40.3-6.8-68.3v-636c0-37.9,7.8-65.3,23.5-82.2C5594.8,10589.1,5620.1,10580.6,5655,10580.6z M5717.7,10719.5v589.6
		h122.7c26.9,0,48-0.8,63.2-2.4c15.3-1.6,31.1-5.5,47.4-11.9c16.4-6.3,30.5-15.2,42.5-26.7c54.2-49.8,81.3-135.5,81.3-257.2
		c0-85.7-11.9-149.9-35.7-192.6c-23.8-42.7-53.2-69.8-88.1-81.5c-34.9-11.6-77.1-17.5-126.5-17.5H5717.7z"/>
	<path class="st1" d="M6861.1,11174.3h-290.7c0.3,36.8,7.2,69.2,20.4,97.3c13.2,28.1,30.8,49.2,52.8,63.5
		c21.9,14.2,46.2,21.4,72.7,21.4c17.8,0,34-2.3,48.7-6.8c14.7-4.5,28.9-11.7,42.7-21.4c13.8-9.7,26.5-20.1,38.1-31.1
		c11.6-11.1,26.7-26.1,45.2-45.1c7.6-7.1,18.5-10.7,32.7-10.7c15.3,0,27.6,4.5,37,13.6c9.4,9.1,14.1,21.9,14.1,38.4
		c0,14.6-5.3,31.6-15.8,51.1c-10.5,19.5-26.4,38.3-47.6,56.2c-21.2,17.9-47.9,32.8-80,44.7c-32.1,11.8-69.1,17.7-110.8,17.7
		c-95.4,0-169.7-29.6-222.7-88.8c-53-59.2-79.5-139.5-79.5-240.9c0-47.7,6.5-92,19.6-132.9c13.1-40.8,32.1-75.8,57.2-105
		c25-29.2,55.9-51.6,92.6-67.2c36.7-15.6,77.3-23.4,122-23.4c58.1,0,107.9,13.3,149.4,39.9s72.7,61.1,93.4,103.3
		c20.7,42.2,31,85.2,31,129c0,40.6-10.7,67-32.1,79C6930.1,11168.3,6900,11174.3,6861.1,11174.3z M6570.4,11082.7h269.5
		c-3.6-55.2-17.3-96.5-41.1-123.9s-55.1-41.1-93.9-41.1c-37,0-67.4,13.9-91.2,41.7C6589.9,10987.2,6575.5,11028.3,6570.4,11082.7z"
		/>
	<path class="st1" d="M7184.9,11364.8v-701c0-32.4,6.6-56.8,19.8-73.4c13.2-16.6,31-24.9,53.4-24.9s40.5,8.2,54.2,24.6
		c13.7,16.4,20.6,41,20.6,73.7v701c0,32.8-7,57.3-20.9,73.7c-13.9,16.4-31.9,24.6-53.9,24.6c-21.7,0-39.3-8.5-52.8-25.5
		C7191.7,11420.7,7184.9,11396.4,7184.9,11364.8z"/>
	<path class="st1" d="M7637.6,10731.6c-20.6,0-38.2-6.9-52.8-20.7c-14.6-13.8-21.9-33.3-21.9-58.6c0-22.9,7.5-41.7,22.5-56.5
		c15-14.8,32.4-22.2,52.3-22.2c19.1,0,36.1,6.7,50.9,20.1c14.8,13.4,22.2,32.9,22.2,58.6c0,24.9-7.2,44.3-21.7,58.3
		C7674.6,10724.6,7657.4,10731.6,7637.6,10731.6z M7710.7,10897.8v467c0,32.4-7,56.8-21.1,73.4c-14.1,16.6-32,24.9-53.6,24.9
		c-21.7,0-39.3-8.5-52.8-25.5s-20.3-41.2-20.3-72.8v-462.3c0-32,6.8-56,20.3-72.2c13.6-16.2,31.2-24.3,52.8-24.3
		c21.7,0,39.6,8.1,53.6,24.3C7703.7,10846.5,7710.7,10869,7710.7,10897.8z"/>
	<path class="st1" d="M8045.3,10906.7l120.3,367.2l129.6-383.2c10.2-30.8,20.1-52.6,29.9-65.4c9.8-12.8,24.7-19.3,44.6-19.3
		c18.9,0,34.9,6.9,48.2,20.7c13.2,13.8,19.9,29.8,19.9,47.9c0,7.1-1.2,15.4-3.5,24.9c-2.4,9.5-5.1,18.3-8.2,26.6
		c-3.1,8.3-6.6,17.8-10.6,28.4l-142.6,384.8c-4,11.1-9.2,25.1-15.5,42c-6.4,17-13.4,31.5-21.2,43.5s-17.4,21.4-28.8,28.1
		c-11.4,6.7-25.3,10.1-41.6,10.1c-21.1,0-37.8-5.2-50.4-15.7c-12.5-10.5-21.8-21.9-27.8-34.3c-6-12.4-16.1-37-30.2-73.7
		l-141.5-380.6c-3.3-9.5-6.6-18.9-10.1-28.4c-3.5-9.5-6.4-19.1-8.7-29s-3.5-18.3-3.5-25.5c0-11,3.1-22,9.2-32.8
		c6.2-10.8,14.7-19.7,25.6-26.6c10.9-6.9,22.7-10.4,35.4-10.4c24.7,0,41.6,7.7,50.9,23.1
		C8023.8,10844.5,8034,10870.4,8045.3,10906.7z"/>
	<path class="st1" d="M9020.5,11174.3h-290.7c0.3,36.8,7.2,69.2,20.4,97.3c13.2,28.1,30.8,49.2,52.8,63.5
		c21.9,14.2,46.2,21.4,72.7,21.4c17.8,0,34-2.3,48.7-6.8c14.7-4.5,28.9-11.7,42.7-21.4c13.8-9.7,26.5-20.1,38.1-31.1
		c11.6-11.1,26.7-26.1,45.2-45.1c7.6-7.1,18.5-10.7,32.7-10.7c15.2,0,27.6,4.5,37,13.6c9.4,9.1,14.1,21.9,14.1,38.4
		c0,14.6-5.3,31.6-15.8,51.1c-10.5,19.5-26.4,38.3-47.6,56.2c-21.2,17.9-47.9,32.8-80,44.7c-32.1,11.8-69.1,17.7-110.8,17.7
		c-95.4,0-169.7-29.6-222.7-88.8c-53-59.2-79.5-139.5-79.5-240.9c0-47.7,6.5-92,19.6-132.9c13.1-40.8,32.1-75.8,57.2-105
		c25-29.2,55.9-51.6,92.6-67.2c36.7-15.6,77.3-23.4,122-23.4c58.1,0,107.9,13.3,149.4,39.9c41.6,26.6,72.7,61.1,93.4,103.3
		c20.7,42.2,31,85.2,31,129c0,40.6-10.7,67-32.1,79C9089.4,11168.3,9059.3,11174.3,9020.5,11174.3z M8729.8,11082.7h269.5
		c-3.6-55.2-17.3-96.5-41.1-123.9s-55.1-41.1-93.9-41.1c-37,0-67.4,13.9-91.2,41.7C8749.3,10987.2,8734.8,11028.3,8729.8,11082.7z"
		/>
	<path class="st1" d="M9491.2,11229.8v135c0,32.8-7,57.4-21.1,73.7c-14.1,16.4-32,24.6-53.6,24.6c-21.3,0-38.8-8.3-52.6-24.9
		c-13.7-16.6-20.6-41-20.6-73.4V10915c0-72.6,24-108.9,72.1-108.9c24.6,0,42.3,8.5,53.1,25.4c10.8,16.9,16.8,42,17.9,75
		c17.8-33.1,36-58.1,54.7-75c18.7-16.9,43.6-25.4,74.9-25.4c31.2,0,61.5,8.5,90.9,25.4s44.1,39.4,44.1,67.4c0,19.7-6.3,36-18.8,48.8
		s-26,19.2-40.5,19.2c-5.5,0-18.6-3.6-39.5-10.9c-20.9-7.3-39.3-10.9-55.2-10.9c-21.8,0-39.6,6.2-53.4,18.7
		c-13.8,12.4-24.5,30.9-32.1,55.4c-7.6,24.5-12.9,53.6-15.8,87.4C9492.6,11140,9491.2,11181.2,9491.2,11229.8z"/>
	<path class="st1" d="M10045.2,11483.7l13.6-36.1l-182.9-501.1c-11.3-28.8-16.9-49.7-16.9-62.8c0-13.8,3.3-26.6,9.8-38.5
		c6.5-11.9,15.5-21.3,26.9-28.4c11.4-7.1,23.3-10.7,35.7-10.7c21.4,0,37.6,7.4,48.4,22.2c10.9,14.8,20.5,36,28.8,63.5l125.7,397.3
		l119.2-369.5c9.4-29.9,18-53.4,25.6-70.3c7.6-16.9,15.7-28.4,24.2-34.3c8.5-5.9,20.6-8.9,36.2-8.9c11.3,0,22,3.3,32.4,9.8
		c10.3,6.5,18.3,15.3,23.9,26.3c5.6,11.1,8.4,22.7,8.4,34.9c-1.5,7.5-3.8,18.2-7.1,32c-3.3,13.8-7.2,27.8-12,42l-193.8,551.5
		c-16.7,48.5-33,86.6-49,114.2c-16,27.6-37.1,48.8-63.4,63.6c-26.3,14.8-61.8,22.2-106.4,22.2c-43.5,0-76.2-5.1-98-15.3
		c-21.8-10.2-32.7-28.8-32.7-55.9c0-18.4,5.2-32.7,15.5-42.7c10.3-10,25.7-15,46-15c8,0,15.8,1.2,23.4,3.6
		c9.4,2.4,17.6,3.6,24.5,3.6c17,0,30.5-2.8,40.3-8.3c9.8-5.5,18.6-15.1,26.4-28.7C10026,11530.2,10035,11510.1,10045.2,11483.7z"/>
</g>
<g>
	<path class="st1" d="M9071.6,8916.4H5823.2c141.3,77.8,237.9,226.8,241.5,398.6h2765.3C8833.7,9143.1,8930.3,8994.2,9071.6,8916.4z
		"/>
	<path class="st1" d="M10025.1,7871.7l-286.2-1200.5H8447.7v398.6h976.4l246.6,1034.2l440.9,331.1v481.2h-590.9
		c141.3,77.8,237.9,226.8,241.5,398.6h748.1V8236L10025.1,7871.7z"/>
</g>
</svg>
